# Blender v2.90.1 OBJ File: 'ball.blend'
# www.blender.org
mtllib ball.mtl
o Sphere_Sphere.002
v 0.000000 0.707107 -0.707107
v 0.000000 -0.000000 -1.000000
v 0.000000 -0.707107 -0.707107
v 0.672499 0.707107 -0.218508
v 0.951057 -0.000000 -0.309017
v 0.672499 -0.707107 -0.218508
v 0.415627 0.707107 0.572062
v 0.587785 -0.000000 0.809017
v 0.415627 -0.707107 0.572062
v -0.000000 1.000000 0.000000
v -0.415627 0.707107 0.572062
v -0.587785 -0.000000 0.809017
v -0.415627 -0.707107 0.572062
v -0.672499 0.707107 -0.218508
v -0.951057 -0.000000 -0.309017
v -0.672499 -0.707107 -0.218508
v 0.000000 -1.000000 0.000000
vt 0.500000 0.000000
vt 0.600000 0.250000
vt 0.400000 0.250000
vt 0.600000 0.750000
vt 0.400000 0.500000
vt 0.600000 0.500000
vt 0.500000 1.000000
vt 0.400000 0.750000
vt 0.300000 0.000000
vt 0.200000 0.250000
vt 0.200000 0.500000
vt 0.300000 1.000000
vt 0.200000 0.750000
vt 0.100000 0.000000
vt 0.000000 0.250000
vt 0.000000 0.500000
vt 0.100000 1.000000
vt 0.000000 0.750000
vt 0.900000 0.000000
vt 1.000000 0.250000
vt 0.800000 0.250000
vt 1.000000 0.750000
vt 0.800000 0.500000
vt 1.000000 0.500000
vt 0.900000 1.000000
vt 0.800000 0.750000
vt 0.700000 0.000000
vt 0.700000 1.000000
vn 0.2679 -0.8901 -0.3687
vn 0.5573 0.3177 -0.7671
vn 0.5573 -0.3177 -0.7671
vn 0.2679 0.8901 -0.3687
vn 0.4334 -0.8901 0.1408
vn 0.9018 0.3177 0.2930
vn 0.9018 -0.3177 0.2930
vn 0.4334 0.8901 0.1408
vn -0.0000 -0.8901 0.4557
vn 0.0000 0.3177 0.9482
vn 0.0000 -0.3177 0.9482
vn -0.0000 0.8901 0.4557
vn -0.4334 -0.8901 0.1408
vn -0.9018 0.3177 0.2930
vn -0.9018 -0.3177 0.2930
vn -0.4334 0.8901 0.1408
vn -0.2679 -0.8901 -0.3687
vn -0.5573 0.3177 -0.7671
vn -0.5573 -0.3177 -0.7671
vn -0.2679 0.8901 -0.3687
usemtl None
s off
f 17/1/1 3/2/1 6/3/1
f 1/4/2 5/5/2 2/6/2
f 3/2/3 5/5/3 6/3/3
f 1/4/4 10/7/4 4/8/4
f 17/9/5 6/3/5 9/10/5
f 4/8/6 8/11/6 5/5/6
f 5/5/7 9/10/7 6/3/7
f 4/8/8 10/12/8 7/13/8
f 17/14/9 9/10/9 13/15/9
f 7/13/10 12/16/10 8/11/10
f 8/11/11 13/15/11 9/10/11
f 7/13/12 10/17/12 11/18/12
f 17/19/13 13/20/13 16/21/13
f 11/22/14 15/23/14 12/24/14
f 12/24/15 16/21/15 13/20/15
f 11/22/16 10/25/16 14/26/16
f 17/27/17 16/21/17 3/2/17
f 15/23/18 1/4/18 2/6/18
f 15/23/19 3/2/19 16/21/19
f 14/26/20 10/28/20 1/4/20
f 1/4/2 4/8/2 5/5/2
f 3/2/3 2/6/3 5/5/3
f 4/8/6 7/13/6 8/11/6
f 5/5/7 8/11/7 9/10/7
f 7/13/10 11/18/10 12/16/10
f 8/11/11 12/16/11 13/15/11
f 11/22/14 14/26/14 15/23/14
f 12/24/15 15/23/15 16/21/15
f 15/23/18 14/26/18 1/4/18
f 15/23/19 2/6/19 3/2/19
